<?xml version="1.0" encoding="UTF-8"?>
<!DOCTYPE svg PUBLIC "-//W3C//DTD SVG 1.1//EN" "http://www.w3.org/Graphics/SVG/1.1/DTD/svg11.dtd">
<!-- Creator: CorelDRAW X6 -->
<svg xmlns="http://www.w3.org/2000/svg" xmlSpace="preserve" width="14.5278in" height="14.4512in" version="1.1" style="shape-rendering:geometricPrecision; text-rendering:geometricPrecision; image-rendering:optimizeQuality; fill-rule:evenodd; clip-rule:evenodd"
viewBox="0 0 11616 11554"
 xmlnsXlink="http://www.w3.org/1999/xlink">

 <g id="Layer_x0020_1">
  <metadata id="CorelCorpID_0Corel-Layer"/>
  <path className="fil0" d="M0 7539l0 315 25 62c144,522 260,676 530,1126 70,116 143,253 211,368 418,709 642,485 943,795 139,143 112,219 93,431 62,-111 173,-87 305,-54 257,64 426,-23 647,-146 50,-28 237,-118 269,-145 -49,-267 139,-270 141,-382 -336,-2 -511,363 -852,419 -96,16 -197,5 -289,-19 -61,-16 -59,-26 -80,-82 -79,-213 -126,-385 -174,-612 -74,-351 -132,-705 -227,-1049 -73,-262 -237,-673 -447,-821 30,330 350,1255 336,1538 -10,203 -172,301 -354,199 -223,-125 -359,-479 -491,-749 -352,-722 -389,-729 -211,-1439 96,-382 29,-322 187,-429 119,-81 276,-182 472,-158 218,26 278,126 382,236 145,153 259,132 400,-18 137,-144 208,-160 426,-78 225,84 425,216 636,304 273,113 170,1 261,179 43,84 125,163 114,279 -329,-73 -565,-504 -999,-382 312,269 844,316 1090,872 96,217 68,331 -3,538 -219,-41 -1010,-663 -1307,-840 -48,-29 -154,-80 -184,-105 5,52 167,214 204,248 402,367 909,605 1299,1019 319,339 171,579 200,702 116,32 148,-28 266,-34 -40,115 -157,77 -148,255 135,8 319,-113 407,-60 67,41 188,184 238,271 90,153 88,205 57,403 -38,242 78,221 99,381 22,163 -42,298 -140,358 -197,121 -247,-79 -368,14 -31,24 -135,231 -314,67 -223,-204 -199,-27 -320,10 -56,-25 -72,-94 -164,-106 -81,-11 -144,18 -214,39 -78,23 -225,-84 -348,-148 -225,-118 -634,-205 -828,-66 63,41 349,132 440,165 393,139 773,259 1193,316 66,9 215,10 267,29l272 0c47,-16 235,-28 304,-41 98,-19 184,-51 267,-71 51,-12 228,19 309,16 489,-17 849,-313 1325,-364 519,-55 534,218 1144,206 773,-16 1581,-138 2290,-412 87,-33 159,-64 238,-99 63,-28 165,-107 230,-58 56,42 97,165 211,82 55,-40 124,-111 173,-163 114,-123 164,-210 319,-364 365,-363 796,-627 708,-1301 -75,16 -228,188 -274,241 -221,252 -395,643 -623,900 3,-107 91,-148 70,-291 -277,31 -911,719 -1508,958 -343,137 -1130,338 -1534,328 -284,-7 -316,-79 -498,71 -191,-63 -769,-199 -809,-353 277,-9 537,72 831,52 -25,-56 -177,-169 -226,-221 -140,-146 -576,-534 -746,-577 -21,219 -22,538 -158,655 -212,181 -280,-137 -517,-167 -69,79 -135,184 -195,301 -106,204 -107,169 -193,305 -114,2 -107,-29 -247,9 -60,16 -168,50 -212,-7 -107,-143 133,-239 201,-294 -27,-63 -168,-94 -112,-226 35,-81 153,-93 194,-147 -204,-139 -101,-290 -13,-497 129,-306 7,-348 67,-441 111,-172 517,-222 664,-91 126,113 133,324 373,340 24,-105 43,-372 101,-434 200,-21 433,66 673,47 7,-108 -188,-142 -136,-214 17,-14 -3,-9 23,-5 115,16 1138,718 1832,913 360,101 871,153 1233,22 186,-67 304,-155 440,-256l384 -303c-125,23 -258,61 -392,86 -631,120 -1362,168 -2009,125 -118,-8 -117,13 -182,-54 -127,-134 -346,-328 -343,-599 159,-62 252,-49 380,-141 9,-287 -486,-81 -584,-292 33,-86 239,-307 306,-358 213,-163 323,-106 487,-37 4,195 -185,263 -46,371 105,81 229,129 396,105 -11,-43 -27,-39 -36,-94 -20,-136 10,-170 88,-279 144,-204 276,-371 509,-475 94,-42 292,-103 410,-79 67,43 96,386 159,503 31,56 57,75 142,77 138,2 200,-104 258,-181 97,-130 76,-128 286,-144 262,-20 531,18 736,112 274,126 318,248 423,442 59,-36 26,-119 81,-166l0 -370c-12,-25 -23,-84 -37,-119 -84,-206 -232,-289 -353,-424 -83,-92 -105,-149 -132,-178 -218,78 -7,491 -279,512 -11,-190 66,-572 1,-711 -10,8 -4,0 -17,17 -22,30 -34,89 -40,156 -15,156 12,478 -204,457 -81,-195 29,-587 -122,-709 -107,124 88,772 -242,760 -66,-142 -80,-222 -100,-397 -13,-119 -22,-319 -75,-413 -169,129 5,905 -209,1039 -199,-190 -156,-775 -235,-885 -58,-40 -118,21 -137,65 -32,74 -19,97 -81,150 -68,-20 -256,-255 45,-475 145,-106 359,-167 581,-161 -42,-101 -358,-42 -471,-51 11,-96 157,-139 270,-161 80,-16 185,-29 265,-58l67 -42c-149,-184 -493,-17 -694,17 99,-209 709,-321 821,-530 -402,29 -655,347 -1065,309 -2,-33 71,-248 87,-306 29,-107 55,-215 77,-328 44,-232 69,-498 45,-740 -51,-512 -533,-743 -429,-1155 33,-16 62,5 96,27 34,22 52,34 80,59 392,338 351,1081 368,1558 91,-256 146,-730 137,-1030 -4,-154 -37,-364 -106,-475 -87,-140 -207,-153 -330,-250 -72,-57 -61,-132 -124,-165 -232,-122 -315,-187 -526,-343 -178,-131 -336,-238 -551,-317 -322,-118 -138,38 -381,-211 -49,-50 -99,-89 -151,-139 -48,-47 -107,-87 -157,-133 -82,-75 -42,-601 -62,-811 -26,-270 -52,-235 -162,-412 -267,-427 -402,-957 -939,-1090 -127,-32 -233,-13 -226,-56 -110,-4 -246,-6 -356,-2 -83,3 -691,169 -682,360 60,-5 131,-29 197,-42 340,-62 733,-53 1050,82 95,40 246,116 286,197 -144,16 -268,29 -419,23 1,194 297,157 348,314 -306,79 -821,-11 -966,122 165,179 984,17 1292,170 220,109 76,153 95,322 70,6 101,-38 158,-9 76,93 -92,113 -51,260 24,85 83,167 115,243 73,171 84,441 50,637 -69,403 -331,675 -651,809 -422,177 -830,96 -1144,-131 -161,-117 -257,-218 -381,-349 -69,-72 -289,-362 -345,-395 -134,981 -566,792 -609,641 -49,-174 130,-443 200,-537 49,-65 103,-132 175,-196 45,-40 108,-90 168,-110l68 -24c-108,-433 150,-657 58,-1017 -441,-42 -150,588 -196,842 -24,135 -178,236 -276,305 -417,290 -929,736 -1407,889 -286,92 -491,-159 -1162,563 -92,99 -188,194 -269,310 -155,222 -245,534 -381,767 -92,159 -162,229 -331,215 -306,-25 -525,451 -393,685l34 -49c10,-17 20,-36 30,-51 60,-91 138,-175 223,-240 203,-157 238,-192 443,-190 197,2 379,32 566,68 260,50 270,48 350,-215 129,26 207,227 312,233 128,-428 -492,-524 -555,-913 -53,-325 192,-560 432,-669 70,-32 171,-77 253,-71l26 7c1,-3 6,2 8,4 48,60 -16,128 -17,213 49,-25 265,-355 353,-435 179,-161 281,-176 578,-159 -75,-172 -28,-221 77,-332 73,-77 183,-154 342,-149 31,19 86,68 96,104 10,36 -23,99 -37,132 -307,691 -709,1140 -498,1994 18,-34 173,-839 224,-1005 75,-248 230,-649 448,-783 294,84 -13,664 -85,835 -287,682 -425,1085 -497,1845 -16,171 -36,344 -62,517 -12,79 -26,164 -43,244 -16,77 -46,162 -55,233 210,-119 467,-564 654,-792 224,-274 462,-421 898,-548 387,-113 836,-163 1263,-193 533,-37 774,62 1174,248 366,170 673,290 917,531 223,221 556,507 585,860 35,430 -337,690 -598,847 -154,92 -307,177 -450,269 -101,65 -343,225 -505,197 -30,-56 -30,-93 -65,-142 -253,-46 -485,120 -664,206 -102,49 -201,93 -334,98 -139,5 -222,-61 -322,-110 -293,-144 -419,112 -675,110 -122,-1 -226,-72 -303,-129 -44,-32 -83,-64 -125,-95 -26,-19 -101,-55 -114,-87 227,-15 374,57 584,57 -33,-66 -167,-150 -232,-196 -912,-642 -2326,-929 -2102,-2400 64,-423 281,-979 230,-1430 -278,100 -392,665 -499,708 -184,-161 -5,-592 -139,-804 -37,50 -71,694 -73,816 -9,402 23,495 56,854 -141,-61 -121,-306 -372,-337 49,182 127,295 117,526 -9,210 -138,291 -354,244 -21,-156 31,-289 56,-435 28,-161 -24,-313 -192,-305 -66,182 10,366 24,553 15,198 -78,421 -259,267 -211,-180 24,-876 -305,-926 -138,292 173,673 3,869 -290,-17 -99,-578 -325,-712 -136,14 -156,138 -104,259 35,80 128,219 103,323 -40,163 -168,30 -214,-49 -54,-92 -85,-218 -225,-204 -114,111 -37,284 31,386 148,223 165,141 73,344 -86,190 -213,623 -325,744zm3971 -2238c-152,61 -42,215 103,165 127,-44 46,-225 -103,-165zm1272 4841c-22,417 -337,636 -234,948 32,-46 61,-167 100,-234 84,-144 174,-127 189,-159 9,-99 -37,-81 -53,-162 98,-118 412,-250 239,-592 -10,14 -5,3 -12,27 -15,51 -8,132 -55,200 -61,88 -112,-3 -175,-27zm-3382 680l20 10c3,1 7,3 10,4l364 43c278,35 300,-35 403,-33 56,68 60,151 163,171 0,-221 108,-265 189,-200 88,70 100,219 199,250 2,-77 -31,-221 29,-264 155,-118 221,294 333,310 108,-240 -270,-372 70,-502 54,26 148,96 154,167 10,112 -106,66 -126,211 66,-6 108,-18 158,20 53,40 47,71 97,98 -18,-319 183,-215 261,-350 -131,-15 -155,64 -250,56 8,-177 76,-323 143,-436 -174,44 -443,278 -913,253 83,-261 663,-382 733,-594 -144,12 -194,94 -326,103 -199,13 -83,-191 -231,-205 -67,139 2,420 -563,615 -302,105 -517,124 -915,271zm5768 -5512c-73,38 -54,126 -23,149 31,22 125,47 171,24 121,-59 -25,-238 -149,-173zm2855 1089c57,118 368,119 402,334 -118,7 -253,-94 -301,-40 -41,67 74,67 109,109 -95,45 -418,-17 -545,61 25,18 322,98 500,189 171,87 320,186 444,249 77,-113 61,-525 -36,-714 -129,-252 -392,-292 -574,-187zm-1313 2235c10,-66 43,-129 -2,-184 -3,-1 -7,-6 -8,-3l-26 -5c-13,0 -26,2 -38,5 -25,5 -50,10 -76,17 -85,21 -315,110 -372,163 -18,17 -4,0 -18,22 96,3 256,-30 288,29 34,103 -147,193 -245,226 -124,42 -273,69 -352,148l79 27c317,47 502,-149 768,-214 96,-24 126,29 229,51 178,38 395,26 583,22 317,-7 269,-12 569,36 -50,-143 -253,-207 -452,-226 -61,-6 -553,-8 -602,-71 -49,-66 27,-146 46,-205 24,-73 -24,-192 -91,-114 -57,66 -151,241 -279,275zm1202 -2489c216,33 424,95 617,149 -9,-61 -31,-112 -44,-178 -42,-213 -32,-407 -75,-606 -68,-313 -273,-481 -448,-676 -180,-201 -617,-706 -815,-775 22,74 124,200 169,262 53,73 123,169 161,269 100,264 -61,520 156,712 148,131 422,148 561,297 132,143 -281,380 -281,546zm-5359 1725c43,142 307,157 472,171 354,30 843,20 1182,-61 131,-31 402,-126 397,-242 -373,-40 -696,-100 -1085,-106 -261,-4 -806,27 -967,238zm944 -5021c-208,2 -287,-54 -454,-80 79,284 795,261 795,-44 -78,44 -102,123 -341,124zm-692 89c257,227 564,765 982,277l234 -327c-178,63 -251,161 -582,186 -126,9 -243,1 -357,-26 -122,-29 -182,-73 -277,-109zm-224 -1519c155,-44 357,-100 476,8l-24 92c-173,0 -309,-41 -404,83 136,16 307,-82 377,21 -90,17 -210,-33 -223,57 77,9 165,-19 223,18 -69,65 -287,-16 -374,79 113,137 699,49 666,-276 -29,-289 -637,-288 -717,-82zm404 803c232,118 907,280 931,-134 -55,-17 -83,-39 -153,-45 -160,163 -307,154 -553,54 -53,-22 -129,-68 -182,-80 -33,57 -49,109 -43,205zm57 -384c-56,61 -17,60 -138,147 -58,41 -125,76 -182,119 -57,43 -107,84 -134,155 -28,73 -25,183 16,244 113,-18 10,-179 147,-177 9,143 -19,319 112,357 0,-126 -67,-320 19,-374 76,75 129,312 158,352 54,74 255,134 387,134 321,0 526,-183 544,-486 127,43 -7,211 70,321 137,-51 -58,-390 189,-380 33,90 12,119 4,213 30,-19 22,-13 45,-43 14,-19 26,-37 35,-58 62,-145 -72,-229 -198,-290 -149,-71 -390,-138 -381,-335 129,32 318,210 457,74 -65,-43 -312,-46 -320,-123l171 -7c-28,-149 -237,50 -273,-78 97,-77 259,21 365,-20 5,-14 9,3 1,-21 -9,-30 -33,-39 -63,-49 -91,-28 -379,50 -384,-61 46,-154 336,-87 482,-106 -173,-143 -918,-110 -568,358 38,51 120,127 92,199 -88,221 -549,91 -652,-67zm298 2851c41,218 -37,393 232,615 147,121 373,203 605,251 497,104 1062,75 1514,-79 19,-128 -85,-446 -127,-554 -166,-431 -425,-751 -509,-1241 -17,-99 -15,-235 -35,-324 -455,-69 -667,150 -934,308 -274,163 -698,215 -1071,152 -479,-80 -625,-426 -895,-356 -161,42 -560,474 -638,624 -80,154 -56,371 -71,553 -19,228 -84,296 -177,450 -280,462 -3,515 510,520 340,3 864,2 1093,-169 195,-147 278,-328 391,-547 39,-76 75,-133 111,-205z"/>
 </g>
</svg>